<?xml version="1.0" encoding="utf-8"?>
<!-- Generator: Adobe Illustrator 17.0.0, SVG Export Plug-In . SVG Version: 6.00 Build 0)  -->
<!DOCTYPE svg PUBLIC "-//W3C//DTD SVG 1.1//EN" "http://www.w3.org/Graphics/SVG/1.1/DTD/svg11.dtd">
<svg version="1.1" id="Calque_1" xmlns="http://www.w3.org/2000/svg" xmlns:xlink="http://www.w3.org/1999/xlink" x="0px" y="0px"
	 width="153.344px" height="29.422px" viewBox="0 0 153.344 29.422" enable-background="new 0 0 153.344 29.422"
	 xml:space="preserve">
<g>
	<path fill="#CB3837" d="M9.917,22.827V12.94c0-2.528-1.44-3.616-3.264-3.616s-3.36,1.12-3.36,3.616v9.887H0.029V6.604h3.2v1.632
		c1.12-1.216,2.688-1.824,4.32-1.824c1.664,0,3.04,0.544,4,1.472c1.248,1.216,1.632,2.752,1.632,4.576v10.367H9.917z"/>
	<path fill="#CB3837" d="M29.286,21.579c-0.896,0.896-2.304,1.44-3.936,1.44c-1.728,0-3.072-0.448-4.256-1.856v8.224h-3.264V6.604
		h3.2v1.728c1.216-1.472,2.528-1.92,4.288-1.92c1.632,0,3.072,0.544,3.968,1.44c1.632,1.632,1.824,4.384,1.824,6.848
		S30.917,19.947,29.286,21.579z M24.486,9.324c-2.944,0-3.392,2.496-3.392,5.375s0.448,5.408,3.392,5.408
		c2.943,0,3.359-2.528,3.359-5.408S27.43,9.324,24.486,9.324z"/>
	<path fill="#CB3837" d="M55.067,22.827V12.94c0-2.528-1.44-3.616-3.264-3.616c-1.76,0-3.36,1.12-3.36,3.456v10.047H45.18V12.94
		c0-2.528-1.44-3.616-3.264-3.616s-3.36,1.12-3.36,3.616v9.887h-3.264V6.604h3.2v1.632c1.088-1.184,2.688-1.824,4.32-1.824
		c2.016,0,3.583,0.8,4.607,2.368c1.312-1.6,2.944-2.368,5.088-2.368c1.664,0,3.136,0.544,4.096,1.472
		c1.248,1.216,1.728,2.752,1.728,4.576v10.367H55.067z"/>
	<path d="M79.772,22.827v-1.472c-1.184,1.184-2.304,1.664-4.32,1.664c-2.016,0-3.359-0.48-4.352-1.472
		c-0.832-0.864-1.28-2.112-1.28-3.488c0-2.72,1.888-4.672,5.6-4.672h4.288v-1.152c0-2.048-1.024-3.04-3.552-3.04
		c-1.792,0-2.656,0.416-3.552,1.568L70.46,8.748c1.536-1.792,3.136-2.336,5.824-2.336c4.448,0,6.688,1.888,6.688,5.568v10.847
		H79.772z M79.708,15.66H75.9c-1.92,0-2.912,0.864-2.912,2.336c0,1.472,0.928,2.304,2.976,2.304c1.248,0,2.176-0.096,3.04-0.928
		c0.48-0.48,0.704-1.248,0.704-2.4V15.66z"/>
	<path d="M97.078,22.827v-1.728c-1.216,1.472-2.528,1.92-4.288,1.92c-1.632,0-3.072-0.544-3.967-1.44
		c-1.632-1.632-1.824-4.416-1.824-6.879s0.192-5.216,1.824-6.848c0.896-0.896,2.304-1.44,3.936-1.44
		c1.728,0,3.072,0.416,4.256,1.824V0.045h3.264v22.782H97.078z M93.654,9.324c-2.944,0-3.392,2.496-3.392,5.375
		s0.448,5.408,3.392,5.408s3.36-2.528,3.36-5.408S96.598,9.324,93.654,9.324z"/>
	<path d="M114.543,22.827v-1.728c-1.216,1.472-2.528,1.92-4.288,1.92c-1.632,0-3.072-0.544-3.967-1.44
		c-1.632-1.632-1.824-4.416-1.824-6.879s0.192-5.216,1.824-6.848c0.896-0.896,2.304-1.44,3.936-1.44
		c1.728,0,3.072,0.416,4.256,1.824V0.045h3.264v22.782H114.543z M111.119,9.324c-2.944,0-3.392,2.496-3.392,5.375
		s0.448,5.408,3.392,5.408s3.36-2.528,3.36-5.408S114.063,9.324,111.119,9.324z"/>
	<path d="M122.412,3.405v-3.456h3.456v3.456H122.412z M122.508,22.827V6.604h3.264v16.223H122.508z"/>
	<path d="M136.949,23.019c-3.647,0-7.231-2.24-7.231-8.319s3.584-8.288,7.231-8.288c2.24,0,3.808,0.64,5.344,2.272l-2.24,2.176
		c-1.024-1.12-1.824-1.536-3.104-1.536c-1.248,0-2.304,0.512-3.008,1.44c-0.704,0.896-0.96,2.048-0.96,3.936s0.256,3.072,0.96,3.968
		c0.704,0.928,1.76,1.44,3.008,1.44c1.28,0,2.08-0.416,3.104-1.536l2.24,2.144C140.757,22.347,139.188,23.019,136.949,23.019z"/>
	<path d="M151.361,22.827c-3.04,0-4.448-2.176-4.448-4.512V9.388h-1.855V6.892h1.855V1.965h3.264v4.927h3.136v2.496h-3.136v8.767
		c0,1.184,0.576,1.888,1.792,1.888h1.344v2.784H151.361z"/>
</g>
</svg>
