<?xml version="1.0" encoding="utf-8"?>
<!-- Generator: Adobe Illustrator 17.0.0, SVG Export Plug-In . SVG Version: 6.00 Build 0)  -->
<!DOCTYPE svg PUBLIC "-//W3C//DTD SVG 1.1//EN" "http://www.w3.org/Graphics/SVG/1.1/DTD/svg11.dtd">
<svg version="1.1" id="Calque_1" xmlns="http://www.w3.org/2000/svg" xmlns:xlink="http://www.w3.org/1999/xlink" x="0px" y="0px"
	 width="429.075px" height="29.422px" viewBox="0 0 429.075 29.422" enable-background="new 0 0 429.075 29.422"
	 xml:space="preserve">
<g>
	<path fill="#CB3837" d="M9.917,22.827V12.94c0-2.528-1.44-3.616-3.264-3.616s-3.36,1.12-3.36,3.616v9.887H0.029V6.604h3.2v1.632
		c1.12-1.216,2.688-1.824,4.32-1.824c1.664,0,3.04,0.544,4,1.472c1.248,1.216,1.632,2.752,1.632,4.576v10.367H9.917z"/>
	<path fill="#CB3837" d="M29.286,21.579c-0.896,0.896-2.304,1.44-3.936,1.44c-1.728,0-3.072-0.448-4.256-1.856v8.224h-3.264V6.604
		h3.2v1.728c1.216-1.472,2.528-1.92,4.288-1.92c1.632,0,3.072,0.544,3.968,1.44c1.632,1.632,1.824,4.384,1.824,6.848
		S30.917,19.947,29.286,21.579z M24.486,9.324c-2.944,0-3.392,2.496-3.392,5.375s0.448,5.408,3.392,5.408
		c2.943,0,3.359-2.528,3.359-5.408S27.43,9.324,24.486,9.324z"/>
	<path fill="#CB3837" d="M55.067,22.827V12.94c0-2.528-1.44-3.616-3.264-3.616c-1.76,0-3.36,1.12-3.36,3.456v10.047H45.18V12.94
		c0-2.528-1.44-3.616-3.264-3.616s-3.36,1.12-3.36,3.616v9.887h-3.264V6.604h3.2v1.632c1.088-1.184,2.688-1.824,4.32-1.824
		c2.016,0,3.583,0.8,4.607,2.368c1.312-1.6,2.944-2.368,5.088-2.368c1.664,0,3.136,0.544,4.096,1.472
		c1.248,1.216,1.728,2.752,1.728,4.576v10.367H55.067z"/>
	<path d="M79.772,22.827v-1.472c-1.184,1.184-2.304,1.664-4.32,1.664c-2.016,0-3.359-0.48-4.352-1.472
		c-0.832-0.864-1.28-2.112-1.28-3.488c0-2.72,1.888-4.672,5.6-4.672h4.288v-1.152c0-2.048-1.024-3.04-3.552-3.04
		c-1.792,0-2.656,0.416-3.552,1.568L70.46,8.748c1.536-1.792,3.136-2.336,5.824-2.336c4.448,0,6.688,1.888,6.688,5.568v10.847
		H79.772z M79.708,15.66H75.9c-1.92,0-2.912,0.864-2.912,2.336c0,1.472,0.928,2.304,2.976,2.304c1.248,0,2.176-0.096,3.04-0.928
		c0.48-0.48,0.704-1.248,0.704-2.4V15.66z"/>
	<path d="M97.078,22.827v-1.728c-1.216,1.472-2.528,1.92-4.288,1.92c-1.632,0-3.072-0.544-3.967-1.44
		c-1.632-1.632-1.824-4.416-1.824-6.879s0.192-5.216,1.824-6.848c0.896-0.896,2.304-1.44,3.936-1.44
		c1.728,0,3.072,0.416,4.256,1.824V0.045h3.264v22.782H97.078z M93.654,9.324c-2.944,0-3.392,2.496-3.392,5.375
		s0.448,5.408,3.392,5.408s3.36-2.528,3.36-5.408S96.598,9.324,93.654,9.324z"/>
	<path d="M114.543,22.827v-1.728c-1.216,1.472-2.528,1.92-4.288,1.92c-1.632,0-3.072-0.544-3.967-1.44
		c-1.632-1.632-1.824-4.416-1.824-6.879s0.192-5.216,1.824-6.848c0.896-0.896,2.304-1.44,3.936-1.44
		c1.728,0,3.072,0.416,4.256,1.824V0.045h3.264v22.782H114.543z M111.119,9.324c-2.944,0-3.392,2.496-3.392,5.375
		s0.448,5.408,3.392,5.408s3.36-2.528,3.36-5.408S114.063,9.324,111.119,9.324z"/>
	<path d="M122.412,3.405v-3.456h3.456v3.456H122.412z M122.508,22.827V6.604h3.264v16.223H122.508z"/>
	<path d="M136.949,23.019c-3.647,0-7.231-2.24-7.231-8.319s3.584-8.288,7.231-8.288c2.24,0,3.808,0.64,5.344,2.272l-2.24,2.176
		c-1.024-1.12-1.824-1.536-3.104-1.536c-1.248,0-2.304,0.512-3.008,1.44c-0.704,0.896-0.96,2.048-0.96,3.936s0.256,3.072,0.96,3.968
		c0.704,0.928,1.76,1.44,3.008,1.44c1.28,0,2.08-0.416,3.104-1.536l2.24,2.144C140.757,22.347,139.188,23.019,136.949,23.019z"/>
	<path d="M151.361,22.827c-3.04,0-4.448-2.176-4.448-4.512V9.388h-1.855V6.892h1.855V1.965h3.264v4.927h3.136v2.496h-3.136v8.767
		c0,1.184,0.576,1.888,1.792,1.888h1.344v2.784H151.361z"/>
</g>
<g>
	<path d="M179.509,18.121v4.706h-1.216v-4.706l-3.394-6.69h1.312l2.689,5.458l2.657-5.458h1.312L179.509,18.121z"/>
	<path d="M188.583,22.027c-0.544,0.544-1.296,0.896-2.257,0.896s-1.713-0.352-2.257-0.896c-0.8-0.816-0.96-1.921-0.96-3.137
		c0-1.217,0.16-2.321,0.96-3.137c0.544-0.544,1.296-0.896,2.257-0.896s1.713,0.352,2.257,0.896c0.8,0.816,0.96,1.92,0.96,3.137
		C189.543,20.106,189.383,21.21,188.583,22.027z M187.767,16.457c-0.368-0.368-0.88-0.576-1.44-0.576s-1.057,0.208-1.425,0.576
		c-0.576,0.576-0.64,1.553-0.64,2.433s0.064,1.856,0.64,2.433c0.368,0.368,0.865,0.576,1.425,0.576s1.072-0.208,1.44-0.576
		c0.576-0.577,0.625-1.553,0.625-2.433S188.343,17.033,187.767,16.457z"/>
	<path d="M196.896,22.827v-0.88c-0.56,0.64-1.344,0.977-2.225,0.977c-0.849,0-1.553-0.256-2.033-0.736
		c-0.56-0.544-0.8-1.297-0.8-2.209v-5.026h1.153v4.85c0,1.393,0.736,2.097,1.92,2.097c1.185,0,1.969-0.72,1.969-2.097v-4.85h1.152
		v7.875H196.896z"/>
	<path d="M205.158,16.457c-0.432-0.432-0.752-0.576-1.36-0.576c-1.152,0-1.889,0.912-1.889,2.113v4.834h-1.153v-7.875h1.153v0.96
		c0.432-0.656,1.296-1.056,2.208-1.056c0.752,0,1.329,0.176,1.889,0.736L205.158,16.457z"/>
	<path d="M216.182,22.827v-0.944c-0.64,0.833-1.376,1.041-2.241,1.041c-0.8,0-1.505-0.272-1.921-0.688
		c-0.8-0.8-0.96-2.113-0.96-3.345s0.16-2.545,0.96-3.345c0.416-0.417,1.121-0.688,1.921-0.688c0.864,0,1.584,0.192,2.225,1.008
		v-4.434h1.152v11.396H216.182z M214.197,15.88c-1.712,0-1.985,1.473-1.985,3.009s0.272,3.009,1.985,3.009
		c1.713,0,1.969-1.473,1.969-3.009S215.91,15.88,214.197,15.88z"/>
	<path d="M224.561,22.827v-0.752c-0.64,0.641-1.216,0.849-2.273,0.849c-1.088,0-1.729-0.208-2.225-0.72
		c-0.384-0.384-0.592-0.977-0.592-1.601c0-1.376,0.96-2.273,2.721-2.273h2.369v-0.752c0-1.152-0.576-1.729-2.017-1.729
		c-1.008,0-1.521,0.24-1.985,0.896l-0.784-0.72c0.704-0.913,1.504-1.168,2.785-1.168c2.113,0,3.153,0.912,3.153,2.625v5.346H224.561
		z M224.561,19.194h-2.209c-1.184,0-1.76,0.48-1.76,1.393c0,0.912,0.56,1.344,1.809,1.344c0.672,0,1.265-0.048,1.761-0.528
		c0.272-0.256,0.4-0.704,0.4-1.36V19.194z"/>
	<path d="M228.299,12.711v-1.296h1.296v1.296H228.299z M228.363,22.827v-7.875h1.153v7.875H228.363z"/>
	<path d="M234.193,22.827c-1.376,0-2-0.896-2-2.097v-9.3h1.152v9.251c0,0.769,0.256,1.153,1.057,1.153h0.624v0.992H234.193z"/>
	<path d="M238.726,24.732c-0.16,0.432-0.336,0.72-0.561,0.928c-0.416,0.4-0.976,0.544-1.537,0.544h-0.496V25.18h0.352
		c0.8,0,1.041-0.256,1.297-0.977l0.56-1.537l-2.833-7.715h1.249l2.161,6.322l2.145-6.322h1.249L238.726,24.732z"/>
	<path d="M247.845,12.711v-1.296h1.296v1.296H247.845z M247.909,22.827v-7.875h1.153v7.875H247.909z"/>
	<path d="M256.821,22.827v-4.85c0-1.393-0.752-2.097-1.937-2.097s-1.953,0.72-1.953,2.097v4.85h-1.153v-7.875h1.153v0.864
		c0.56-0.64,1.328-0.96,2.208-0.96c0.849,0,1.537,0.256,2.017,0.736c0.56,0.544,0.816,1.28,0.816,2.193v5.042H256.821z"/>
	<path d="M259.783,26.365h-0.833v-1.009h0.625c0.8,0,1.056-0.384,1.056-1.152V15h1.153v9.252
		C261.784,25.452,261.16,26.365,259.783,26.365z M260.567,12.711v-1.296h1.296v1.296H260.567z"/>
	<path d="M265.273,19.194c0,1.729,0.816,2.721,2.321,2.721c0.912,0,1.44-0.272,2.065-0.896l0.784,0.688
		c-0.8,0.8-1.537,1.217-2.881,1.217c-2.081,0-3.441-1.249-3.441-4.034c0-2.545,1.232-4.034,3.233-4.034
		c2.033,0,3.233,1.473,3.233,3.81v0.528H265.273z M269.195,17.017c-0.304-0.72-1.008-1.184-1.841-1.184s-1.537,0.464-1.841,1.184
		c-0.176,0.433-0.208,0.672-0.24,1.312h4.162C269.403,17.689,269.371,17.449,269.195,17.017z"/>
	<path d="M276.079,22.923c-1.985,0-3.49-1.345-3.49-4.034s1.505-4.034,3.49-4.034c1.088,0,1.776,0.288,2.593,1.168l-0.784,0.736
		c-0.592-0.656-1.057-0.88-1.809-0.88c-0.769,0-1.409,0.304-1.825,0.896c-0.368,0.512-0.512,1.12-0.512,2.113
		c0,0.992,0.144,1.601,0.512,2.113c0.417,0.592,1.057,0.896,1.825,0.896c0.752,0,1.216-0.24,1.809-0.896l0.784,0.752
		C277.855,22.635,277.167,22.923,276.079,22.923z"/>
	<path d="M283.375,22.827c-1.344,0-2.017-0.944-2.017-2.113V15.88h-0.993V15h0.993v-2.465h1.152V15h1.681v0.88h-1.681v4.802
		c0,0.72,0.336,1.153,1.072,1.153h0.608v0.992H283.375z"/>
	<path d="M286.25,12.711v-1.296h1.296v1.296H286.25z M286.313,22.827v-7.875h1.153v7.875H286.313z"/>
	<path d="M295.285,22.027c-0.544,0.544-1.296,0.896-2.257,0.896s-1.713-0.352-2.257-0.896c-0.8-0.816-0.96-1.921-0.96-3.137
		c0-1.217,0.16-2.321,0.96-3.137c0.544-0.544,1.296-0.896,2.257-0.896s1.713,0.352,2.257,0.896c0.8,0.816,0.96,1.92,0.96,3.137
		C296.246,20.106,296.085,21.21,295.285,22.027z M294.469,16.457c-0.368-0.368-0.88-0.576-1.44-0.576s-1.057,0.208-1.425,0.576
		c-0.576,0.576-0.64,1.553-0.64,2.433s0.064,1.856,0.64,2.433c0.368,0.368,0.865,0.576,1.425,0.576s1.072-0.208,1.44-0.576
		c0.576-0.577,0.625-1.553,0.625-2.433S295.045,17.033,294.469,16.457z"/>
	<path d="M303.669,22.827v-4.85c0-1.393-0.752-2.097-1.937-2.097s-1.953,0.72-1.953,2.097v4.85h-1.153v-7.875h1.153v0.864
		c0.56-0.64,1.328-0.96,2.208-0.96c0.849,0,1.537,0.256,2.017,0.736c0.56,0.544,0.816,1.28,0.816,2.193v5.042H303.669z"/>
	<path d="M316.661,22.027c-0.544,0.544-1.296,0.896-2.257,0.896s-1.713-0.352-2.257-0.896c-0.8-0.816-0.96-1.921-0.96-3.137
		c0-1.217,0.16-2.321,0.96-3.137c0.544-0.544,1.296-0.896,2.257-0.896s1.713,0.352,2.257,0.896c0.8,0.816,0.96,1.92,0.96,3.137
		C317.621,20.106,317.461,21.21,316.661,22.027z M315.844,16.457c-0.368-0.368-0.88-0.576-1.44-0.576s-1.057,0.208-1.424,0.576
		c-0.577,0.576-0.641,1.553-0.641,2.433s0.064,1.856,0.641,2.433c0.368,0.368,0.864,0.576,1.424,0.576s1.072-0.208,1.44-0.576
		c0.576-0.577,0.625-1.553,0.625-2.433S316.42,17.033,315.844,16.457z"/>
	<path d="M321.312,15.88v6.947h-1.152V15.88h-1.008V15h1.008v-1.489c0-1.168,0.656-2.113,2-2.113h0.833v0.993h-0.624
		c-0.736,0-1.057,0.432-1.057,1.152V15h1.681v0.88H321.312z"/>
	<path d="M333.953,22.827v-4.85c0-1.393-0.752-2.097-1.937-2.097s-1.953,0.72-1.953,2.097v4.85h-1.153v-7.875h1.153v0.864
		c0.56-0.64,1.328-0.96,2.208-0.96c0.849,0,1.537,0.256,2.017,0.736c0.56,0.544,0.816,1.28,0.816,2.193v5.042H333.953z"/>
	<path d="M343.075,22.235c-0.416,0.416-1.121,0.688-1.921,0.688c-0.864,0-1.584-0.208-2.225-1.024v4.45h-1.153V14.952h1.153v0.928
		c0.64-0.833,1.36-1.024,2.225-1.024c0.8,0,1.505,0.272,1.921,0.688c0.8,0.8,0.96,2.113,0.96,3.345S343.875,21.435,343.075,22.235z
		 M340.914,15.88c-1.712,0-1.984,1.473-1.984,3.009s0.272,3.009,1.984,3.009c1.713,0,1.969-1.473,1.969-3.009
		S342.626,15.88,340.914,15.88z"/>
	<path d="M356.552,22.827v-4.85c0-1.393-0.752-2.097-1.937-2.097c-1.153,0-1.969,0.72-1.969,1.969v4.978h-1.152v-4.85
		c0-1.393-0.752-2.097-1.937-2.097c-1.185,0-1.969,0.72-1.969,2.097v4.85h-1.153v-7.875h1.153v0.864
		c0.56-0.64,1.344-0.96,2.225-0.96c1.088,0,1.937,0.448,2.417,1.312c0.608-0.864,1.489-1.312,2.593-1.312
		c0.848,0,1.552,0.272,2.033,0.736c0.56,0.544,0.848,1.28,0.848,2.193v5.042H356.552z"/>
	<path d="M369.782,22.235c-0.416,0.416-1.121,0.688-1.921,0.688c-0.864,0-1.584-0.208-2.225-1.024v4.45h-1.153V14.952h1.153v0.928
		c0.64-0.833,1.36-1.024,2.225-1.024c0.8,0,1.505,0.272,1.921,0.688c0.8,0.8,0.96,2.113,0.96,3.345S370.582,21.435,369.782,22.235z
		 M367.621,15.88c-1.712,0-1.984,1.473-1.984,3.009s0.272,3.009,1.984,3.009c1.713,0,1.969-1.473,1.969-3.009
		S369.333,15.88,367.621,15.88z"/>
	<path d="M377.715,22.827v-0.752c-0.64,0.641-1.216,0.849-2.273,0.849c-1.088,0-1.729-0.208-2.225-0.72
		c-0.384-0.384-0.592-0.977-0.592-1.601c0-1.376,0.96-2.273,2.721-2.273h2.369v-0.752c0-1.152-0.576-1.729-2.017-1.729
		c-1.008,0-1.521,0.24-1.985,0.896l-0.784-0.72c0.704-0.913,1.504-1.168,2.785-1.168c2.113,0,3.153,0.912,3.153,2.625v5.346H377.715
		z M377.715,19.194h-2.209c-1.184,0-1.76,0.48-1.76,1.393c0,0.912,0.56,1.344,1.809,1.344c0.672,0,1.265-0.048,1.761-0.528
		c0.272-0.256,0.4-0.704,0.4-1.36V19.194z"/>
	<path d="M384.62,22.923c-1.985,0-3.49-1.345-3.49-4.034s1.505-4.034,3.49-4.034c1.088,0,1.776,0.288,2.593,1.168l-0.784,0.736
		c-0.592-0.656-1.057-0.88-1.809-0.88c-0.769,0-1.409,0.304-1.825,0.896c-0.368,0.512-0.512,1.12-0.512,2.113
		c0,0.992,0.144,1.601,0.512,2.113c0.417,0.592,1.057,0.896,1.825,0.896c0.752,0,1.216-0.24,1.809-0.896l0.784,0.752
		C386.396,22.635,385.708,22.923,384.62,22.923z"/>
	<path d="M394.486,22.827l-2.497-4.034l-1.537,1.761v2.273H389.3V11.431h1.153v7.619l3.553-4.098h1.44l-2.673,3.009l3.137,4.866
		H394.486z"/>
	<path d="M402.291,22.827v-0.752c-0.64,0.641-1.216,0.849-2.273,0.849c-1.088,0-1.729-0.208-2.225-0.72
		c-0.384-0.384-0.592-0.977-0.592-1.601c0-1.376,0.96-2.273,2.721-2.273h2.369v-0.752c0-1.152-0.576-1.729-2.017-1.729
		c-1.008,0-1.521,0.24-1.985,0.896l-0.784-0.72c0.704-0.913,1.504-1.168,2.785-1.168c2.113,0,3.153,0.912,3.153,2.625v5.346H402.291
		z M402.291,19.194h-2.209c-1.184,0-1.76,0.48-1.76,1.393c0,0.912,0.56,1.344,1.809,1.344c0.672,0,1.265-0.048,1.761-0.528
		c0.272-0.256,0.4-0.704,0.4-1.36V19.194z"/>
	<path d="M408.707,26.445c-1.185,0-1.841-0.304-2.673-1.057l0.752-0.736c0.576,0.512,0.977,0.784,1.889,0.784
		c1.521,0,2.161-1.072,2.161-2.417v-1.232c-0.641,0.816-1.36,1.024-2.209,1.024c-0.801,0-1.489-0.288-1.905-0.704
		c-0.784-0.784-0.96-2.001-0.96-3.281c0-1.281,0.176-2.497,0.96-3.281c0.416-0.417,1.121-0.688,1.92-0.688
		c0.864,0,1.569,0.192,2.209,1.024v-0.928h1.137v8.115C411.988,25.02,410.771,26.445,408.707,26.445z M408.883,15.88
		c-1.712,0-1.969,1.473-1.969,2.945s0.256,2.945,1.969,2.945c1.713,0,1.953-1.472,1.953-2.945S410.596,15.88,408.883,15.88z"/>
	<path d="M415.491,19.194c0,1.729,0.816,2.721,2.32,2.721c0.913,0,1.441-0.272,2.065-0.896l0.784,0.688
		c-0.801,0.8-1.537,1.217-2.881,1.217c-2.081,0-3.441-1.249-3.441-4.034c0-2.545,1.232-4.034,3.233-4.034
		c2.032,0,3.232,1.473,3.232,3.81v0.528H415.491z M419.412,17.017c-0.304-0.72-1.008-1.184-1.84-1.184
		c-0.833,0-1.537,0.464-1.841,1.184c-0.177,0.433-0.208,0.672-0.24,1.312h4.161C419.621,17.689,419.589,17.449,419.412,17.017z"/>
	<path d="M425.81,22.923c-1.329,0-2.369-0.304-3.233-1.137l0.769-0.768c0.624,0.656,1.472,0.912,2.448,0.912
		c1.297,0,2.097-0.464,2.097-1.393c0-0.688-0.399-1.072-1.312-1.152l-1.296-0.112c-1.537-0.128-2.354-0.816-2.354-2.113
		c0-1.44,1.217-2.305,2.897-2.305c1.12,0,2.129,0.272,2.833,0.848l-0.752,0.752c-0.561-0.432-1.28-0.624-2.097-0.624
		c-1.152,0-1.761,0.496-1.761,1.296c0,0.672,0.384,1.072,1.376,1.152l1.265,0.112c1.377,0.128,2.321,0.656,2.321,2.129
		C429.011,22.043,427.714,22.923,425.81,22.923z"/>
</g>
</svg>
